<?xml version="1.0" encoding="UTF-8" standalone="no"?>
<svg
   xmlns:dc="http://purl.org/dc/elements/1.1/"
   xmlns:cc="http://creativecommons.org/ns#"
   xmlns:rdf="http://www.w3.org/1999/02/22-rdf-syntax-ns#"
   xmlns:svg="http://www.w3.org/2000/svg"
   xmlns="http://www.w3.org/2000/svg"
   id="svg2673"
   version="1.1"
   viewBox="0 0 6.3499999 6.3500002"
   height="24"
   width="24">
  <defs
     id="defs2667">
    <mask
       fill="white"
       height="44"
       width="44"
       y="0"
       x="0"
       maskUnits="objectBoundingBox"
       maskContentUnits="userSpaceOnUse"
       id="mask-86">
      <circle
         style="stroke-width:0.07000434"
         id="use1934"
         cx="1.5400954"
         cy="1.5400954"
         r="1.5400954" />
    </mask>
    <mask
       fill="white"
       height="44"
       width="44"
       y="0"
       x="0"
       maskUnits="objectBoundingBox"
       maskContentUnits="userSpaceOnUse"
       id="mask-14">
      <circle
         style="stroke-width:3.38135266"
         id="use1790"
         cx="74.014206"
         cy="74.013908"
         r="74.389763" />
    </mask>
    <mask
       fill="white"
       height="44"
       width="44"
       y="0"
       x="0"
       maskUnits="objectBoundingBox"
       maskContentUnits="userSpaceOnUse"
       id="mask-14-5">
      <circle
         style="stroke-width:3.38135266"
         id="use1790-3"
         cx="74.014206"
         cy="74.013908"
         r="74.389763" />
    </mask>
    <mask
       fill="white"
       height="44"
       width="44"
       y="0"
       x="0"
       maskUnits="objectBoundingBox"
       maskContentUnits="userSpaceOnUse"
       id="mask-4">
      <circle
         style="stroke-width:3.3611114"
         id="use1770"
         cx="73.94445"
         cy="73.94445"
         r="73.94445" />
    </mask>
    <mask
       fill="white"
       height="44"
       width="44"
       y="0"
       x="0"
       maskUnits="objectBoundingBox"
       maskContentUnits="userSpaceOnUse"
       id="mask-84">
      <circle
         style="stroke-width:3.3611114"
         id="use1930"
         cx="73.94445"
         cy="73.94445"
         r="73.94445" />
    </mask>
    <mask
       fill="white"
       height="44"
       width="44"
       y="0"
       x="0"
       maskUnits="objectBoundingBox"
       maskContentUnits="userSpaceOnUse"
       id="mask-74">
      <circle
         style="stroke-width:3.3611114"
         id="use1910"
         cx="73.94445"
         cy="73.94445"
         r="73.94445" />
    </mask>
  </defs>
  <metadata
     id="metadata2670">
    <rdf:RDF>
      <cc:Work
         rdf:about="">
        <dc:format>image/svg+xml</dc:format>
        <dc:type
           rdf:resource="http://purl.org/dc/dcmitype/StillImage" />
        <dc:title></dc:title>
      </cc:Work>
    </rdf:RDF>
  </metadata>
  <g
     transform="translate(0,-290.64998)"
     id="layer1">
    <g
       transform="matrix(0.14388557,0,0,0.14388557,0.01903486,290.66903)"
       id="github">
      <g
         transform="matrix(0.53333333,0,0,0.53333333,0.42862378,0.42857067)"
         id="linkedin" />
      <g
         transform="matrix(1.0030066,0,0,1.0030066,-0.13229165,-0.13239707)"
         id="linkedin-5">
        <g
           style="fill:#000000;fill-opacity:1"
           id="flikr">
          <path
             id="path2341"
             d="M 33,21.999333 C 33,24.760576 30.832079,27 28.155809,27 25.474365,27 23.307738,24.760576 23.307738,21.999333 23.307738,19.239423 25.474365,17 28.155809,17 30.832079,17 33,19.239423 33,21.999333 m -12.309031,0 C 20.690969,24.760576 18.523048,27 15.842897,27 13.167921,27 11,24.760576 11,21.999333 11,19.239423 13.167921,17 15.842897,17 c 2.680151,0 4.848072,2.239423 4.848072,4.999333"
             style="fill:#000000;fill-opacity:1" />
        </g>
      </g>
    </g>
  </g>
</svg>
