<?xml version="1.0" encoding="UTF-8" standalone="no"?>
<svg
   xmlns:dc="http://purl.org/dc/elements/1.1/"
   xmlns:cc="http://creativecommons.org/ns#"
   xmlns:rdf="http://www.w3.org/1999/02/22-rdf-syntax-ns#"
   xmlns:svg="http://www.w3.org/2000/svg"
   xmlns="http://www.w3.org/2000/svg"
   width="24"
   height="24"
   viewBox="0 0 6.3499999 6.3500002"
   version="1.1"
   id="svg2673">
  <defs
     id="defs2667">
    <mask
       id="mask-86"
       maskContentUnits="userSpaceOnUse"
       maskUnits="objectBoundingBox"
       x="0"
       y="0"
       width="44"
       height="44"
       fill="white">
      <circle
         r="1.5400954"
         cy="1.5400954"
         cx="1.5400954"
         id="use1934"
         style="stroke-width:0.07000434" />
    </mask>
  </defs>
  <metadata
     id="metadata2670">
    <rdf:RDF>
      <cc:Work
         rdf:about="">
        <dc:format>image/svg+xml</dc:format>
        <dc:type
           rdf:resource="http://purl.org/dc/dcmitype/StillImage" />
        <dc:title></dc:title>
      </cc:Work>
    </rdf:RDF>
  </metadata>
  <g
     style="fill:#000000;fill-opacity:1"
     id="layer1"
     transform="translate(0,-290.64998)">
    <g
       style="fill:#000000;fill-opacity:1"
       id="github"
       transform="matrix(0.14388557,0,0,0.14388557,0.01903486,290.66903)">
      <path
         style="fill:#000000;fill-opacity:1"
         d="m 10,22.304434 c 0,5.435402 3.438043,10.047488 8.206513,11.674483 0.600387,0.1133 0.819178,-0.266634 0.819178,-0.592939 0,-0.292316 -0.01031,-1.06578 -0.01621,-2.092283 -3.337856,0.743251 -4.042113,-1.649655 -4.042113,-1.649655 -0.545873,-1.421544 -1.332638,-1.799967 -1.332638,-1.799967 -1.089536,-0.763646 0.08251,-0.747784 0.08251,-0.747784 1.204457,0.08686 1.837994,1.268211 1.837994,1.268211 1.071119,1.880033 2.808926,1.336945 3.492556,1.02197 0.109028,-0.795369 0.419166,-1.336946 0.761718,-1.645123 -2.664538,-0.310443 -5.466098,-1.365649 -5.466098,-6.08046 0,-1.343744 0.467786,-2.442003 1.235397,-3.302332 -0.123024,-0.311199 -0.534823,-1.562036 0.117868,-3.255501 0,0 1.007766,-0.331593 3.299549,1.260657 0.957672,-0.272676 1.983854,-0.409392 3.004143,-0.413924 1.019553,0.0045 2.045735,0.141248 3.004881,0.413924 2.290309,-1.59225 3.296602,-1.260657 3.296602,-1.260657 0.654164,1.693465 0.242365,2.944302 0.119341,3.255501 0.769084,0.860329 1.233187,1.958588 1.233187,3.302332 0,4.726141 -2.805243,5.76624 -5.478622,6.071396 0.430953,0.379934 0.814022,1.130739 0.814022,2.278095 0,1.645123 -0.014,2.97225 -0.014,3.3756 0,0.329326 0.215845,0.711527 0.825071,0.591428 C 30.564904,32.34739 34,27.739081 34,22.304434 34,15.50867 28.626723,10 21.998895,10 15.373277,10 10,15.50867 10,22.304434 Z"
         id="path2383" />
    </g>
  </g>
</svg>
