<?xml version="1.0" encoding="UTF-8" standalone="no"?>

<svg
   xmlns:dc="http://purl.org/dc/elements/1.1/"
   xmlns:cc="http://creativecommons.org/ns#"
   xmlns:rdf="http://www.w3.org/1999/02/22-rdf-syntax-ns#"
   xmlns:svg="http://www.w3.org/2000/svg"
   xmlns="http://www.w3.org/2000/svg"
   xmlns:inkscape="http://www.inkscape.org/namespaces/inkscape"
   version="1.0"
   width="300"
   height="134.33"
   id="svg2">
  <g
     transform="translate(0,-465.67)"
     id="layer1">
    <g
       transform="translate(22.234871,-128.40594)"
       id="g4194">
      <path
         d="m -9.1192354,594.07192 c -0.021134,-0.002 -2.9284316,5.66995 -2.9284316,5.66995 7.6133242,1.81447 11.92390593,3.74544 16.1375279,8.50491 -15.9872039,12.23839 -26.3247319,31.52124 -26.3247319,53.21023 0,36.98528 29.994807,66.94893 66.980087,66.94893 36.98528,0 66.948934,-29.96365 66.948934,-66.94893 0,-36.98528 -29.963654,-66.98009 -66.948934,-66.98009 -14.198772,0 -27.359817,4.42541 -38.1942264,11.96295 -4.3805151,-9.39948 -12.1912381,-11.99302 -15.670225,-12.36795 z m 53.5217624,7.69493 c 6.054332,0 10.989131,4.87361 11.090656,10.90373 1.604661,-1.44046 3.717688,-2.33651 6.043785,-2.33651 5.00553,0 9.065677,4.06014 9.065677,9.06567 0,3.31242 -1.802289,6.20729 -4.454955,7.78838 2.329447,1.15054 3.925345,3.55027 3.925345,6.32417 0,3.89319 -3.147513,7.0407 -7.040698,7.0407 -1.097232,0 -2.127063,-0.26931 -3.053045,-0.71653 0.354552,0.74978 0.52961,1.57669 0.52961,2.46113 0,3.19797 -2.565426,5.79455 -5.763403,5.79455 -1.750968,0 -3.330856,-0.76561 -4.392648,-1.99382 -0.363913,1.99468 -2.105978,3.52035 -4.205726,3.52035 -1.965245,0 -3.578668,-1.34143 -4.081112,-3.14651 -0.44918,0.6891 -1.234528,1.15268 -2.11844,1.15268 -1.390425,0 -2.523436,-1.13301 -2.523436,-2.52344 0,-1.39042 1.133011,-2.52343 2.523436,-2.52343 0.958402,0 1.786577,0.55146 2.2119,1.3396 0.588498,-1.66054 2.125418,-2.86612 3.987652,-2.86612 1.082767,0 2.050032,0.42737 2.803817,1.09037 0.08314,-3.12546 2.649037,-5.60764 5.794557,-5.60764 0.764443,0 1.481492,0.13587 2.149593,0.405 -0.575448,-1.02114 -0.903452,-2.17124 -0.903452,-3.42689 0,-2.22941 1.032413,-4.22243 2.64805,-5.51417 -3.293093,-1.10334 -5.751171,-4.03961 -6.137245,-7.60146 -2.02169,2.16321 -4.90547,3.5515 -8.099918,3.5515 -3.178547,0 -6.017516,-1.37596 -8.03761,-3.52035 9.97e-4,0.0743 0,0.14345 0,0.21807 0,7.36925 -5.995614,13.36487 -13.364864,13.36487 -1.021756,0 -2.003685,-0.1252 -2.959585,-0.34269 1.112245,2.12575 1.744597,4.5376 1.744597,7.103 0,6.50156 -4.044406,12.0588 -9.751054,14.29947 6.041581,2.64377 10.249511,8.65354 10.249511,15.67023 0,2.01678 -0.356447,3.93538 -0.996913,5.73225 2.043572,-0.74464 4.241117,-1.18384 6.542241,-1.18384 8.111202,0 15.03555,5.05595 17.819818,12.18103 2.51246,-7.79346 9.813681,-13.42717 18.442889,-13.42717 10.706267,0 19.408649,8.67123 19.408649,19.3775 0,10.70626 -8.702382,19.37749 -19.408649,19.37749 -8.252744,0 -15.272008,-5.16298 -18.069046,-12.43026 -2.500756,7.65633 -9.702146,13.17795 -18.193661,13.17795 -10.567227,0 -19.1282669,-8.56104 -19.1282669,-19.12827 0,-2.58298 0.5053053,-5.04192 1.4330619,-7.28993 -1.5720116,0.47582 -3.2260795,0.74769 -4.9534106,0.74769 -9.4548817,0 -17.1344404,-7.67956 -17.1344404,-17.13444 0,-7.51789 4.8504993,-13.89877 11.58911225,-16.19984 -5.06949165,-2.50844 -8.56722045,-7.73066 -8.56722045,-13.76986 0,-8.48158 6.8771041,-15.35869 15.3586897,-15.35869 1.5321156,0 3.0275548,0.23657 4.4238015,0.65423 -0.737536,-1.65658 -1.1838345,-3.49035 -1.1838345,-5.42072 0,-7.36925 5.9644605,-13.33371 13.3337105,-13.33371 4.176736,0 7.927471,1.91777 10.374125,4.92226 0.328224,-5.82319 5.123036,-10.46758 11.028349,-10.46758 z m 29.12855,68.31968 c 1.179816,0 2.149593,0.93863 2.149593,2.11844 0,1.17982 -0.969777,2.1496 -2.149593,2.1496 -1.179817,0 -2.149594,-0.96978 -2.149594,-2.1496 0,-1.17981 0.969777,-2.11844 2.149594,-2.11844 z m 13.956781,20.7171 c 1.179816,0 2.149593,0.96978 2.149593,2.14959 0,1.17982 -0.969777,2.1496 -2.149593,2.1496 -1.179817,0 -2.149594,-0.96978 -2.149594,-2.1496 0,-1.17981 0.969777,-2.14959 2.149594,-2.14959 z"
         id="path3613"
         style="fill:#bbff00;fill-opacity:1" />
      <path
         d="m 135.79895,710.8501 c -1.59506,-0.51839 -1.79445,-0.59814 -2.15334,-0.95703 -0.35888,-0.27914 -0.55827,-0.79753 -0.55827,-1.31593 0,-1.27605 1.11655,-2.11345 2.79136,-2.11345 1.39567,0 2.15333,0.31901 2.91099,1.23617 1.1564,1.43555 1.87419,1.83432 3.15024,1.83432 1.35579,0 2.43247,-0.95704 2.43247,-2.19321 0,-2.31284 -3.78828,-4.14716 -8.61333,-4.14716 -6.02135,0 -10.36789,3.03063 -10.36789,7.25753 0,2.51222 1.63493,4.10728 5.22382,5.14407 l 2.83123,0.79753 c 1.75456,0.51839 2.31284,0.99691 2.31284,2.0337 0,1.51531 -1.55519,2.59198 -3.58889,2.59198 -1.27604,0 -2.15333,-0.39877 -2.99074,-1.39568 -1.5153,-1.71469 -2.31284,-2.19321 -3.74839,-2.19321 -1.51531,0 -2.63185,1.03679 -2.63185,2.39259 0,0.99691 0.55827,1.91407 1.55519,2.5521 1.87418,1.19629 4.78518,1.91407 7.73604,1.91407 6.49986,0 11.52431,-3.34963 11.52431,-7.65629 0,-1.31593 -0.71777,-2.7116 -1.75456,-3.46926 -0.6779,-0.47852 -1.59507,-0.91716 -2.91099,-1.31592 l -3.15024,-0.99692 m 20.49902,-3.70851 5.54283,0 0.63803,-3.58889 -5.50296,0 1.07667,-5.90172 -3.58889,0 c -1.3558,4.0674 -3.15026,5.90172 -6.73913,6.85876 l -0.47852,2.63185 2.75148,0 -1.95395,10.92616 c -0.23926,1.27605 -0.31901,1.83432 -0.31901,2.27297 0,2.51222 1.87419,3.94777 5.18394,3.94777 3.03061,0 6.30049,-1.3558 8.57346,-3.54901 l -1.67482,-2.67173 c -1.3558,0.99692 -3.3895,1.91408 -4.22691,1.91408 -0.79753,0 -1.31592,-0.47852 -1.31592,-1.23618 0,-0.19938 0.0399,-0.55827 0.0797,-0.87728 l 1.95395,-10.72678 m 31.51482,-3.58889 -6.30049,0 -2.67173,14.71444 c -1.27605,1.03679 -2.59197,1.55518 -3.9079,1.55518 -1.39567,0 -2.47234,-0.83741 -2.47234,-1.91407 0,-0.35889 0,-0.43864 0.23926,-2.15333 l 2.19321,-12.20222 -2.07358,0 c -3.03062,0.95704 -4.66556,1.23617 -7.65629,1.39568 l -0.59815,3.26987 0.47852,0 c 0.6779,0 1.75456,0.35889 2.11345,0.63803 0.15951,0.1595 0.23926,0.43864 0.23926,0.79753 0,0.27913 -0.0797,0.95703 -0.1595,1.47543 l -1.31593,7.1379 c -0.0797,0.39876 -0.15951,1.39567 -0.15951,1.79444 0,2.47234 2.43247,4.22691 5.86185,4.22691 2.39259,0 4.26679,-0.6779 7.29741,-2.63185 0.71777,1.75457 2.23308,2.63185 4.70542,2.63185 2.27297,0 4.70543,-1.11654 6.34037,-2.91099 l -1.55518,-2.31283 c -0.91716,0.71777 -1.27605,0.91716 -1.79445,0.91716 -0.75765,0 -1.39567,-0.71778 -1.39567,-1.59506 0,-0.47852 0.0399,-0.79753 0.31901,-2.23309 l 2.27296,-12.60098 m 27.65899,15.23283 c -0.0797,0.0797 -0.19938,0.15951 -0.19938,0.15951 -1.11655,0.8374 -1.1963,0.87728 -1.83432,0.87728 -0.83741,0 -1.47543,-0.63802 -1.47543,-1.51531 0,-0.59815 0.11962,-1.5153 0.31901,-2.7116 l 3.78827,-20.85542 -2.27296,0 c -2.15334,0.95704 -4.90483,1.51531 -7.53667,1.51531 l -0.59814,3.26987 0.47851,0 c 0.63803,0 1.67482,0.31902 2.03371,0.63803 0.11963,0.11963 0.23926,0.43864 0.23926,0.75765 0,0.27914 -0.0798,0.87728 -0.19939,1.51531 l -0.35889,2.11345 c -1.43555,-0.8374 -3.26987,-1.3558 -4.82505,-1.3558 -6.34037,0 -11.92308,5.90174 -11.92308,12.52123 0,4.90481 3.34962,8.57345 7.85567,8.57345 1.75457,0 3.66864,-0.6779 4.98457,-1.75457 l 1.59506,-1.47543 c 0.51839,2.07358 2.23308,3.23 4.78518,3.23 2.27296,0 4.90481,-1.23617 6.85876,-3.23 l -1.71469,-2.27296 m -8.37407,-10.96604 c 0.0797,0.0399 0.0797,0.0399 0.11963,0.0797 -1.07667,6.18085 -1.83432,8.69308 -3.23,10.48753 -1.07666,1.3558 -2.23308,2.07357 -3.3895,2.07357 -1.75457,0 -2.79136,-1.43555 -2.79136,-3.90789 0,-2.35272 0.83741,-5.46309 1.99383,-7.21765 1.11654,-1.79445 2.47234,-2.63185 4.14716,-2.63185 1.11654,0 2.27296,0.39876 3.07049,1.03679 l 0.0798,0.0797 m 23.08173,11.28505 c -1.11654,0.55827 -2.0337,0.87729 -2.55209,0.87729 -0.83741,0 -1.55519,-0.63803 -1.55519,-1.39568 0,-0.27914 0.0798,-0.79753 0.19939,-1.3558 0.0399,-0.15951 0.0798,-0.5184 0.19938,-1.07667 l 2.27296,-12.60098 -2.07358,0 c -3.03061,0.95704 -4.66555,1.23617 -7.65629,1.39568 l -0.59815,3.26987 0.47852,0 c 0.6779,0 1.75457,0.35889 2.11346,0.63803 0.1595,0.1595 0.23925,0.43864 0.23925,0.79753 0,0.27913 -0.0797,0.95703 -0.1595,1.47543 l -1.31593,7.25753 c -0.19938,0.91716 -0.23926,1.39567 -0.23926,1.95395 0,2.35271 2.07358,3.94777 5.18395,3.94777 2.31284,0 4.94469,-1.07667 7.1379,-2.95086 l -1.67482,-2.23309 m -3.22999,-25.56084 c -2.27296,0 -4.50605,2.1932 -4.50605,4.50604 0,1.8742 1.27605,3.19012 3.11037,3.19012 2.31284,0 4.5858,-2.23308 4.5858,-4.50604 0,-1.8742 -1.27605,-3.19012 -3.19012,-3.19012 m 19.01264,9.65011 c -3.50912,0 -6.65938,1.15642 -8.85259,3.23 -2.51221,2.39259 -4.10728,6.18086 -4.10728,9.72987 0,4.98457 3.70853,8.13481 9.65012,8.13481 3.74839,0 7.09803,-1.3558 9.41086,-3.82815 2.11345,-2.23308 3.58889,-5.82197 3.58889,-8.81271 0,-5.42319 -3.46926,-8.45382 -9.69,-8.45382 m -0.1595,3.50914 c 2.1932,0 3.15024,1.15642 3.15024,3.78827 0,1.91407 -0.91716,5.58271 -1.83432,7.33727 -0.99691,1.95395 -2.39259,2.95087 -4.14716,2.95087 -1.95395,0 -3.07049,-1.27605 -3.07049,-3.42938 0,-2.19321 0.87728,-5.86185 1.83432,-7.69617 1.07667,-2.07358 2.27296,-2.95086 4.06741,-2.95086 m 23.38909,4.14715 c -1.59506,-0.51839 -1.79445,-0.59814 -2.15333,-0.95703 -0.35889,-0.27914 -0.55828,-0.79753 -0.55828,-1.31593 0,-1.27605 1.11655,-2.11345 2.79136,-2.11345 1.39568,0 2.15333,0.31901 2.91099,1.23617 1.15642,1.43555 1.87419,1.83432 3.15024,1.83432 1.3558,0 2.43247,-0.95704 2.43247,-2.19321 0,-2.31284 -3.78828,-4.14716 -8.61333,-4.14716 -6.02135,0 -10.36789,3.03063 -10.36789,7.25753 0,2.51222 1.63493,4.10728 5.22382,5.14407 l 2.83123,0.79753 c 1.75457,0.51839 2.31284,0.99691 2.31284,2.0337 0,1.51531 -1.55518,2.59198 -3.58889,2.59198 -1.27604,0 -2.15333,-0.39877 -2.99073,-1.39568 -1.51531,-1.71469 -2.31284,-2.19321 -3.7484,-2.19321 -1.5153,0 -2.63185,1.03679 -2.63185,2.39259 0,0.99691 0.55827,1.91407 1.55519,2.5521 1.87419,1.19629 4.78518,1.91407 7.73604,1.91407 6.49986,0 11.52432,-3.34963 11.52432,-7.65629 0,-1.31593 -0.71778,-2.7116 -1.75457,-3.46926 -0.6779,-0.47852 -1.59506,-0.91716 -2.91099,-1.31592 L 269.19168,710.85"
         id="text3588"
         style="font-size:40px;font-style:italic;font-variant:normal;font-weight:bold;font-stretch:normal;fill:#bbff00;fill-opacity:1;stroke:none;font-family:URW Bookman L;-inkscape-font-specification:URW Bookman L Bold Italic" />
      <path
         d="m 148.97095,677.11457 c -2.75148,2.35272 -5.1042,3.46926 -7.49679,3.46926 -2.39259,0 -3.94777,-1.47543 -3.94777,-3.70852 0,-0.51839 0.0399,-1.03679 0.11963,-1.71469 0.43864,0.0399 0.87728,0.0399 1.03679,0.0399 3.38949,0 6.38024,-0.5184 9.05197,-1.55519 2.8711,-1.11654 4.42629,-3.03061 4.42629,-5.4232 0,-2.95086 -2.79137,-4.90481 -7.01827,-4.90481 -7.85566,0 -14.39542,5.74222 -14.39542,12.64085 0,4.98457 3.82815,8.45382 9.41086,8.45382 2.75148,0 5.22382,-0.79753 8.13481,-2.67172 1.27605,-0.83741 2.11345,-1.47543 2.83123,-2.27296 l -2.15333,-2.35272 m -10.76666,-4.70543 c 0.23926,-1.15642 0.87728,-2.47234 1.79444,-3.62876 1.15642,-1.51531 2.59198,-2.35272 4.02753,-2.35272 1.31592,0 2.23308,0.79753 2.23308,1.91408 0,2.23308 -3.42939,4.0674 -7.57653,4.0674 l -0.47852,0 m 23.34672,10.56728 c 1.79444,0.99691 3.30975,1.43555 5.02444,1.43555 6.18085,0 11.7237,-5.94161 11.7237,-12.64085 0,-4.94468 -3.15026,-8.45382 -7.61642,-8.45382 -2.31283,0 -3.98766,0.75765 -6.06123,2.75148 l 0.43865,-2.3926 -2.11346,0 c -2.99074,0.95704 -4.66556,1.23618 -7.65629,1.39568 l -0.59815,3.26988 0.5184,0 c 0.63802,0 1.75456,0.35889 2.11345,0.63802 0.11963,0.15951 0.23926,0.47852 0.23926,0.79753 0,0.35889 -0.0399,0.59815 -0.19938,1.47543 l -2.83124,15.55184 c -0.11962,0.71778 -0.43864,1.47544 -0.79753,1.75457 -0.43864,0.39877 -1.47543,0.71778 -2.31283,0.71778 l -0.6779,0 -0.59815,3.26987 13.39851,0 0.59815,-3.26987 -1.07667,0 c -1.59506,0 -2.35271,-0.59815 -2.31284,-1.71469 0,-0.23926 0.0399,-0.5184 0.0797,-0.75766 l 0.71778,-3.82814 m 0.63803,-3.30975 c 0.8374,-3.98765 1.47543,-6.42012 2.15333,-8.05506 1.15642,-2.79135 2.87111,-4.46617 4.5858,-4.46617 1.71468,0 2.63185,1.39568 2.63185,4.02753 0,2.0337 -0.6779,4.78518 -1.63494,6.57963 -1.07667,2.11345 -2.47235,3.15024 -4.14716,3.15024 -1.23617,0 -2.55209,-0.47852 -3.58888,-1.23617 m 29.60029,-0.43864 c -1.11654,0.55827 -2.0337,0.87728 -2.55209,0.87728 -0.83741,0 -1.55519,-0.63802 -1.55519,-1.39568 0,-0.27913 0.0798,-0.79753 0.19939,-1.3558 0.0399,-0.15951 0.0797,-0.51839 0.19938,-1.07667 l 2.27296,-12.60098 -2.07358,0 c -3.03061,0.95704 -4.66555,1.23618 -7.65629,1.39568 l -0.59815,3.26988 0.47852,0 c 0.6779,0 1.75457,0.35889 2.11346,0.63802 0.1595,0.15951 0.23926,0.43864 0.23926,0.79753 0,0.27914 -0.0798,0.95704 -0.15951,1.47543 l -1.31593,7.25753 c -0.19938,0.91716 -0.23926,1.39568 -0.23926,1.95395 0,2.35271 2.07358,3.94777 5.18395,3.94777 2.31284,0 4.94469,-1.07666 7.1379,-2.95086 l -1.67482,-2.23308 m 6.79335,-10.92617 c 3.11037,0.15951 3.15024,0.19939 5.22382,5.10419 -1.59506,3.62877 -3.66864,5.90173 -5.2637,5.66247 -1.27605,0 -1.51531,0 -1.91407,0.11963 -1.07667,0.27914 -1.83432,1.3558 -1.83432,2.5521 0,1.63493 1.07667,2.67172 2.67173,2.67172 1.31592,0 2.87111,-0.79753 4.34654,-2.23308 1.23617,-1.23617 1.5153,-1.63494 3.34962,-5.02444 0.83741,2.11345 1.35581,3.15024 1.95395,4.0674 1.43556,2.11346 3.26988,3.19012 5.42321,3.19012 2.23308,0 4.34654,-1.07666 7.17777,-3.62876 l -1.75456,-2.31284 c -1.23618,0.95704 -1.8742,1.27605 -2.67173,1.27605 -1.63494,0 -2.59197,-1.31592 -4.66555,-6.42012 1.91407,-3.11037 3.78827,-4.94469 5.14407,-4.94469 0.19938,0 0.51839,0.0399 0.87728,0.0798 0.23926,0.0399 0.47852,0.0399 0.6779,0.0399 1.67481,0 3.15025,-1.27605 3.15025,-2.79135 0,-1.39568 -1.15642,-2.39259 -2.75148,-2.39259 -2.39259,0 -5.38333,2.47235 -8.13481,6.65937 -0.55827,-1.3558 -0.99692,-2.67172 -1.95395,-6.30049 l -2.11346,0 c -2.47234,1.03679 -3.54901,1.27605 -6.34036,1.39568 l -0.59815,3.23"
         id="text3592"
         style="font-size:40px;font-style:italic;font-variant:normal;font-weight:bold;font-stretch:normal;fill:#ffffff;fill-opacity:1;stroke:none;font-family:URW Bookman L;-inkscape-font-specification:URW Bookman L Bold Italic" />
      <path
         d="m 188.55934,653.66718 c -2.27296,0 -4.50605,2.19321 -4.50605,4.50605 0,1.87419 1.27605,3.19012 3.11037,3.19012 2.31284,0 4.5858,-2.23309 4.5858,-4.50605 0,-1.8742 -1.27605,-3.19012 -3.19012,-3.19012"
         id="path3614"
         style="font-size:40px;font-style:italic;font-variant:normal;font-weight:bold;font-stretch:normal;fill:#ffffff;fill-opacity:1;stroke:none;font-family:URW Bookman L;-inkscape-font-specification:URW Bookman L Bold Italic" />
    </g>
  </g>
</svg>
