<?xml version="1.0" encoding="UTF-8" standalone="no"?>
<svg
   xmlns:dc="http://purl.org/dc/elements/1.1/"
   xmlns:cc="http://creativecommons.org/ns#"
   xmlns:rdf="http://www.w3.org/1999/02/22-rdf-syntax-ns#"
   xmlns:svg="http://www.w3.org/2000/svg"
   xmlns="http://www.w3.org/2000/svg"
   id="svg2673"
   version="1.1"
   viewBox="0 0 6.3499999 6.3500002"
   height="24"
   width="24">
  <defs
     id="defs2667">
    <mask
       fill="white"
       height="44"
       width="44"
       y="0"
       x="0"
       maskUnits="objectBoundingBox"
       maskContentUnits="userSpaceOnUse"
       id="mask-86">
      <circle
         style="stroke-width:0.07000434"
         id="use1934"
         cx="1.5400954"
         cy="1.5400954"
         r="1.5400954" />
    </mask>
    <mask
       fill="white"
       height="44"
       width="44"
       y="0"
       x="0"
       maskUnits="objectBoundingBox"
       maskContentUnits="userSpaceOnUse"
       id="mask-14">
      <circle
         style="stroke-width:3.38135266"
         id="use1790"
         cx="74.014206"
         cy="74.013908"
         r="74.389763" />
    </mask>
    <mask
       fill="white"
       height="44"
       width="44"
       y="0"
       x="0"
       maskUnits="objectBoundingBox"
       maskContentUnits="userSpaceOnUse"
       id="mask-14-5">
      <circle
         style="stroke-width:3.38135266"
         id="use1790-3"
         cx="74.014206"
         cy="74.013908"
         r="74.389763" />
    </mask>
    <mask
       fill="white"
       height="44"
       width="44"
       y="0"
       x="0"
       maskUnits="objectBoundingBox"
       maskContentUnits="userSpaceOnUse"
       id="mask-4">
      <circle
         style="stroke-width:3.3611114"
         id="use1770"
         cx="73.94445"
         cy="73.94445"
         r="73.94445" />
    </mask>
  </defs>
  <metadata
     id="metadata2670">
    <rdf:RDF>
      <cc:Work
         rdf:about="">
        <dc:format>image/svg+xml</dc:format>
        <dc:type
           rdf:resource="http://purl.org/dc/dcmitype/StillImage" />
        <dc:title></dc:title>
      </cc:Work>
    </rdf:RDF>
  </metadata>
  <g
     transform="translate(0,-290.64998)"
     id="layer1">
    <g
       transform="matrix(0.14388557,0,0,0.14388557,0.01903486,290.66903)"
       id="github">
      <g
         transform="matrix(0.53333333,0,0,0.53333333,0.42862378,0.42857067)"
         id="linkedin" />
      <g
         transform="matrix(1.0030066,0,0,1.0030066,-0.13229165,-0.13239707)"
         id="linkedin-5">
        <path
           id="path2133"
           d="m 12.504469,18.413113 h 3.898165 v 13.585606 h -3.898165 z m 1.849717,-1.699321 h -0.02822 C 12.914864,16.713792 12,15.675247 12,14.360097 12,13.018056 12.94191,12 14.381232,12 c 1.438147,0 2.322437,1.015495 2.350659,2.356256 0,1.315149 -0.912512,2.357536 -2.377705,2.357536 z M 32,32 h -4.420273 v -7.03163 c 0,-1.840185 -0.691439,-3.095147 -2.2119,-3.095147 -1.162982,0 -1.809737,0.846459 -2.110772,1.664746 -0.112888,0.291971 -0.09525,0.700474 -0.09525,1.110257 V 32 H 18.78269 c 0,0 0.05644,-12.45486 0,-13.586887 h 4.379116 v 2.132155 c 0.258702,-0.932257 1.658043,-2.262773 3.89111,-2.262773 2.770461,0 4.947084,1.955436 4.947084,6.16212 z"
           style="fill:#ffffff;fill-opacity:1" />
        <g
           style="fill:#000000;fill-opacity:1"
           id="twitter">
          <path
             id="path2098"
             d="m 30.526149,16.845732 c 0.889945,-0.561607 1.572812,-1.452117 1.893291,-2.512928 -0.833245,0.521306 -1.754006,0.89831 -2.736397,1.102412 C 28.899102,14.551206 27.778658,14 26.538651,14 c -2.37894,0 -4.306744,2.034523 -4.306744,4.54355 0,0.356204 0.03575,0.703308 0.109702,1.034812 -3.579503,-0.189802 -6.753477,-1.996822 -8.879732,-4.747653 -0.371016,0.673408 -0.583025,1.453416 -0.583025,2.285426 0,1.575617 0.760521,2.966633 1.916711,3.783042 -0.706287,-0.0234 -1.370664,-0.230103 -1.952457,-0.568107 v 0.0559 c 0,2.202224 1.484064,4.039145 3.457475,4.455149 -0.362388,0.106602 -0.742032,0.159902 -1.136468,0.159902 -0.277337,0 -0.548512,-0.0273 -0.809825,-0.0806 0.547279,1.80442 2.13858,3.120035 4.024476,3.155135 -1.475436,1.219414 -3.332981,1.944822 -5.350766,1.944822 -0.347596,0 -0.691495,-0.0195 -1.027998,-0.0624 C 13.90685,31.247292 16.171157,32 18.604332,32 c 7.925691,0 12.257087,-6.923877 12.257087,-12.928644 0,-0.197602 -0.0025,-0.393904 -0.01109,-0.587606 0.841873,-0.640907 1.574045,-1.441716 2.149674,-2.353026 -0.772847,0.361404 -1.603627,0.605806 -2.473851,0.715008 z"
             style="fill:#000000;fill-opacity:1" />
        </g>
      </g>
    </g>
  </g>
</svg>
